<svg width="28" height="29" viewBox="0 0 28 29" fill="none" xmlns="http://www.w3.org/2000/svg">
<path fill-rule="evenodd" clip-rule="evenodd" d="M8.06218 0.968629L9.8 0.968629C10.5732 0.968629 11.2 1.59543 11.2 2.36863C11.2 3.14183 10.5732 3.76863 9.8 3.76863H8.12C6.92079 3.76863 6.10558 3.76972 5.47545 3.8212C4.86167 3.87135 4.54779 3.96224 4.32883 4.07381C3.80197 4.34226 3.37363 4.7706 3.10518 5.29746C2.99362 5.51641 2.90272 5.8303 2.85257 6.44408C2.80109 7.07421 2.8 7.88942 2.8 9.08863V20.8486C2.8 22.0478 2.80109 22.863 2.85257 23.4932C2.90272 24.107 2.99362 24.4208 3.10518 24.6398C3.37363 25.1667 3.80197 25.595 4.32883 25.8634C4.54779 25.975 4.86167 26.0659 5.47545 26.1161C6.10558 26.1675 6.92079 26.1686 8.12 26.1686H9.8C10.5732 26.1686 11.2 26.7954 11.2 27.5686C11.2 28.3418 10.5732 28.9686 9.8 28.9686H8.06215C6.9352 28.9686 6.00511 28.9687 5.24744 28.9068C4.46051 28.8425 3.73712 28.7045 3.05765 28.3583C2.00395 27.8214 1.14726 26.9647 0.610365 25.911C0.264158 25.2315 0.126168 24.5081 0.0618724 23.7212C-3.19391e-05 22.9635 -1.72537e-05 22.0334 6.03808e-07 20.9064V9.03081C-1.72537e-05 7.90385 -3.19391e-05 6.97374 0.0618725 6.21607C0.126168 5.42914 0.264158 4.70575 0.610367 4.02628C1.14726 2.97257 2.00395 2.11588 3.05766 1.57899C3.73712 1.23279 4.46051 1.0948 5.24745 1.0305C6.00512 0.968596 6.93522 0.968611 8.06218 0.968629ZM18.6101 6.97868C19.1568 6.43194 20.0432 6.43194 20.59 6.97868L27.5899 13.9787C28.1367 14.5254 28.1367 15.4118 27.5899 15.9586L20.59 22.9586C20.0432 23.5053 19.1568 23.5053 18.6101 22.9586C18.0633 22.4118 18.0633 21.5254 18.6101 20.9787L23.2201 16.3686H9.8C9.0268 16.3686 8.4 15.7418 8.4 14.9686C8.4 14.1954 9.0268 13.5686 9.8 13.5686H23.2201L18.6101 8.95858C18.0633 8.41184 18.0633 7.52541 18.6101 6.97868Z" fill="white"/>
</svg>
