<svg width="166" height="48" viewBox="0 0 166 48" fill="none" xmlns="http://www.w3.org/2000/svg">
<g id="Union">
<mask id="path-1-inside-1_2004_238" fill="white">
<path fill-rule="evenodd" clip-rule="evenodd" d="M2.03991 1.76826C1.0133 2.75209 0.5 3.97118 0.5 5.42554C0.5 6.83712 1.0133 8.05622 2.03991 9.08283C3.06652 10.1094 4.307 10.6227 5.76136 10.6227C7.17294 10.6227 8.39204 10.1094 9.41865 9.08283C10.4453 8.05622 10.9586 6.83712 10.9586 5.42554C10.9586 3.97118 10.4453 2.75209 9.41865 1.76826C8.39204 0.74165 7.17294 0.228348 5.76136 0.228348C4.307 0.228348 3.06652 0.74165 2.03991 1.76826ZM1.39828 47.7089H10.0603V14.6008H1.39828V47.7089ZM30.0891 0.228348C25.2983 0.228348 21.3202 1.72548 18.1548 4.71975C15.0322 7.71402 13.4709 11.4141 13.4709 15.8199C13.4709 20.5252 15.0964 24.2894 18.3473 27.1126C21.641 29.893 25.5335 31.0479 30.0249 30.5774L21.4271 45.784H31.8857L43.4991 25.6369C45.6379 21.8726 46.7073 18.6003 46.7073 15.8199C46.7073 11.3285 45.1246 7.60708 41.9592 4.65559C38.8366 1.7041 34.8799 0.228348 30.0891 0.228348ZM30.0891 23.0062C28.0359 23.0062 26.3249 22.3432 24.9561 21.0171C23.63 19.6483 22.967 17.9159 22.967 15.8199C22.967 13.7239 23.63 12.0129 24.9561 10.6869C26.3249 9.31809 28.0359 8.63369 30.0891 8.63369C32.1423 8.63369 33.8319 9.31809 35.158 10.6869C36.5268 12.0129 37.2112 13.7239 37.2112 15.8199C37.2112 17.9159 36.5268 19.6483 35.158 21.0171C33.8319 22.3432 32.1423 23.0062 30.0891 23.0062ZM56.0209 39.7527C51.4867 35.3041 49.2196 29.8288 49.2196 23.327C49.2196 16.8252 51.4867 11.3499 56.0209 6.90129C60.5551 2.45266 66.1587 0.228348 72.8316 0.228348C79.5045 0.228348 85.1081 2.45266 89.6423 6.90129C94.1765 11.3499 96.4436 16.8252 96.4436 23.327C96.4436 29.8288 94.1765 35.3041 89.6423 39.7527C85.1081 44.2013 79.5045 46.4257 72.8316 46.4257C66.1587 46.4257 60.5551 44.2013 56.0209 39.7527ZM62.758 12.8684C60.0632 15.6916 58.7158 19.1778 58.7158 23.327C58.7158 27.4762 60.0632 30.9624 62.758 33.7856C65.4956 36.6087 68.8535 38.0203 72.8316 38.0203C76.8525 38.0203 80.2103 36.6087 82.9052 33.7856C85.6 30.9624 86.9474 27.4762 86.9474 23.327C86.9474 19.1778 85.6 15.6916 82.9052 12.8684C80.2103 10.0453 76.8525 8.63369 72.8316 8.63369C68.8535 8.63369 65.4956 10.0453 62.758 12.8684ZM141.945 0.228348H132.77V28.5242C132.77 29.3797 132.855 30.3208 133.026 31.3474C133.24 32.374 133.518 33.2936 133.861 34.1064L133.732 34.1705C133.433 33.3578 133.026 32.5023 132.513 31.604C132.043 30.663 131.551 29.8502 131.037 29.1658L108.452 0.228348H98.9559V45.1424H108.131V17.1032C108.131 16.2477 108.024 15.3066 107.81 14.28C107.639 13.2534 107.404 12.3124 107.105 11.4569H107.233C107.532 12.2696 107.917 13.1465 108.388 14.0875C108.858 14.9858 109.372 15.7772 109.928 16.4616L132.449 45.1424H141.945V0.228348ZM150.657 0.22852C150.375 0.224014 150.201 0.307931 150.059 0.503363C148.236 3.01863 146.406 5.53109 144.572 8.04073C144.425 8.24235 144.415 8.41244 144.568 8.61463C144.864 9.00543 145.15 9.40098 145.436 9.79656L145.437 9.79774C145.557 9.96387 145.677 10.13 145.798 10.2958L146.672 11.4944C147.803 13.0456 148.934 14.5967 150.06 16.1503C150.2 16.344 150.369 16.4319 150.654 16.4302C151.442 16.4253 152.231 16.4257 153.02 16.4261L153.651 16.4263C153.691 16.4263 153.723 16.4009 153.723 16.37V14.5728C153.723 14.5446 153.713 14.5164 153.696 14.4917C153.526 14.2444 153.355 13.9972 153.181 13.7511C153.043 13.555 152.905 13.3584 152.768 13.1618C152.256 12.4306 151.744 11.6993 151.182 10.9936C150.386 9.99561 149.236 9.39185 147.71 9.31132C147.439 9.29667 147.334 9.19867 147.338 8.99142C147.342 8.76187 147.341 8.5321 147.339 8.30239V8.30066C147.339 8.17418 147.338 8.04772 147.338 7.92133C147.34 7.48597 147.353 7.46964 147.909 7.42289C148.837 7.34404 149.691 7.09229 150.313 6.54655C150.887 6.04304 151.411 5.48491 151.835 4.89579C152.475 4.0048 153.087 3.10086 153.696 2.19523C153.713 2.17101 153.721 2.14341 153.721 2.11582V0.287093C153.721 0.256117 153.689 0.230772 153.65 0.230772L153.113 0.231054L152.576 0.231336C152.388 0.231336 152.201 0.231915 152.014 0.232494C151.561 0.233893 151.108 0.235292 150.656 0.22852H150.657ZM159.898 16.1552C159.756 16.3507 159.582 16.4346 159.301 16.4301H159.301C158.849 16.4233 158.396 16.4247 157.944 16.4261C157.756 16.4267 157.569 16.4273 157.382 16.4273C157.202 16.4273 157.023 16.4274 156.844 16.4275C156.665 16.4277 156.486 16.4278 156.307 16.4278C156.268 16.4278 156.236 16.4025 156.236 16.3715V14.5428C156.236 14.5152 156.245 14.4876 156.261 14.4634C156.87 13.5577 157.483 12.6538 158.123 11.7628C158.546 11.1737 159.07 10.6156 159.644 10.1121C160.266 9.56631 161.12 9.31456 162.048 9.23571C162.604 9.18897 162.618 9.17263 162.619 8.73728C162.619 8.61088 162.619 8.48442 162.618 8.35794C162.617 8.12766 162.615 7.89731 162.62 7.66719C162.623 7.45993 162.519 7.36193 162.247 7.34729C160.721 7.26675 159.571 6.66299 158.776 5.665C158.213 4.95937 157.702 4.22823 157.19 3.49717C157.052 3.30046 156.915 3.10375 156.776 2.90755C156.603 2.66143 156.431 2.41418 156.261 2.16693C156.244 2.14215 156.235 2.11399 156.235 2.08583V0.288648C156.235 0.257672 156.267 0.232328 156.306 0.232328C156.516 0.232328 156.727 0.232427 156.937 0.232527C157.726 0.232902 158.515 0.233276 159.304 0.228385C159.589 0.226695 159.757 0.314555 159.898 0.508298C161.023 2.06185 162.154 3.61292 163.285 5.16403C163.577 5.56361 163.868 5.96318 164.159 6.36281C164.28 6.52859 164.4 6.69472 164.521 6.86084C164.807 7.25682 165.093 7.65277 165.389 8.04397C165.542 8.24616 165.533 8.41625 165.386 8.61788C163.551 11.1275 161.721 13.64 159.898 16.1552Z"/>
</mask>
<path fill-rule="evenodd" clip-rule="evenodd" d="M2.03991 1.76826C1.0133 2.75209 0.5 3.97118 0.5 5.42554C0.5 6.83712 1.0133 8.05622 2.03991 9.08283C3.06652 10.1094 4.307 10.6227 5.76136 10.6227C7.17294 10.6227 8.39204 10.1094 9.41865 9.08283C10.4453 8.05622 10.9586 6.83712 10.9586 5.42554C10.9586 3.97118 10.4453 2.75209 9.41865 1.76826C8.39204 0.74165 7.17294 0.228348 5.76136 0.228348C4.307 0.228348 3.06652 0.74165 2.03991 1.76826ZM1.39828 47.7089H10.0603V14.6008H1.39828V47.7089ZM30.0891 0.228348C25.2983 0.228348 21.3202 1.72548 18.1548 4.71975C15.0322 7.71402 13.4709 11.4141 13.4709 15.8199C13.4709 20.5252 15.0964 24.2894 18.3473 27.1126C21.641 29.893 25.5335 31.0479 30.0249 30.5774L21.4271 45.784H31.8857L43.4991 25.6369C45.6379 21.8726 46.7073 18.6003 46.7073 15.8199C46.7073 11.3285 45.1246 7.60708 41.9592 4.65559C38.8366 1.7041 34.8799 0.228348 30.0891 0.228348ZM30.0891 23.0062C28.0359 23.0062 26.3249 22.3432 24.9561 21.0171C23.63 19.6483 22.967 17.9159 22.967 15.8199C22.967 13.7239 23.63 12.0129 24.9561 10.6869C26.3249 9.31809 28.0359 8.63369 30.0891 8.63369C32.1423 8.63369 33.8319 9.31809 35.158 10.6869C36.5268 12.0129 37.2112 13.7239 37.2112 15.8199C37.2112 17.9159 36.5268 19.6483 35.158 21.0171C33.8319 22.3432 32.1423 23.0062 30.0891 23.0062ZM56.0209 39.7527C51.4867 35.3041 49.2196 29.8288 49.2196 23.327C49.2196 16.8252 51.4867 11.3499 56.0209 6.90129C60.5551 2.45266 66.1587 0.228348 72.8316 0.228348C79.5045 0.228348 85.1081 2.45266 89.6423 6.90129C94.1765 11.3499 96.4436 16.8252 96.4436 23.327C96.4436 29.8288 94.1765 35.3041 89.6423 39.7527C85.1081 44.2013 79.5045 46.4257 72.8316 46.4257C66.1587 46.4257 60.5551 44.2013 56.0209 39.7527ZM62.758 12.8684C60.0632 15.6916 58.7158 19.1778 58.7158 23.327C58.7158 27.4762 60.0632 30.9624 62.758 33.7856C65.4956 36.6087 68.8535 38.0203 72.8316 38.0203C76.8525 38.0203 80.2103 36.6087 82.9052 33.7856C85.6 30.9624 86.9474 27.4762 86.9474 23.327C86.9474 19.1778 85.6 15.6916 82.9052 12.8684C80.2103 10.0453 76.8525 8.63369 72.8316 8.63369C68.8535 8.63369 65.4956 10.0453 62.758 12.8684ZM141.945 0.228348H132.77V28.5242C132.77 29.3797 132.855 30.3208 133.026 31.3474C133.24 32.374 133.518 33.2936 133.861 34.1064L133.732 34.1705C133.433 33.3578 133.026 32.5023 132.513 31.604C132.043 30.663 131.551 29.8502 131.037 29.1658L108.452 0.228348H98.9559V45.1424H108.131V17.1032C108.131 16.2477 108.024 15.3066 107.81 14.28C107.639 13.2534 107.404 12.3124 107.105 11.4569H107.233C107.532 12.2696 107.917 13.1465 108.388 14.0875C108.858 14.9858 109.372 15.7772 109.928 16.4616L132.449 45.1424H141.945V0.228348ZM150.657 0.22852C150.375 0.224014 150.201 0.307931 150.059 0.503363C148.236 3.01863 146.406 5.53109 144.572 8.04073C144.425 8.24235 144.415 8.41244 144.568 8.61463C144.864 9.00543 145.15 9.40098 145.436 9.79656L145.437 9.79774C145.557 9.96387 145.677 10.13 145.798 10.2958L146.672 11.4944C147.803 13.0456 148.934 14.5967 150.06 16.1503C150.2 16.344 150.369 16.4319 150.654 16.4302C151.442 16.4253 152.231 16.4257 153.02 16.4261L153.651 16.4263C153.691 16.4263 153.723 16.4009 153.723 16.37V14.5728C153.723 14.5446 153.713 14.5164 153.696 14.4917C153.526 14.2444 153.355 13.9972 153.181 13.7511C153.043 13.555 152.905 13.3584 152.768 13.1618C152.256 12.4306 151.744 11.6993 151.182 10.9936C150.386 9.99561 149.236 9.39185 147.71 9.31132C147.439 9.29667 147.334 9.19867 147.338 8.99142C147.342 8.76187 147.341 8.5321 147.339 8.30239V8.30066C147.339 8.17418 147.338 8.04772 147.338 7.92133C147.34 7.48597 147.353 7.46964 147.909 7.42289C148.837 7.34404 149.691 7.09229 150.313 6.54655C150.887 6.04304 151.411 5.48491 151.835 4.89579C152.475 4.0048 153.087 3.10086 153.696 2.19523C153.713 2.17101 153.721 2.14341 153.721 2.11582V0.287093C153.721 0.256117 153.689 0.230772 153.65 0.230772L153.113 0.231054L152.576 0.231336C152.388 0.231336 152.201 0.231915 152.014 0.232494C151.561 0.233893 151.108 0.235292 150.656 0.22852H150.657ZM159.898 16.1552C159.756 16.3507 159.582 16.4346 159.301 16.4301H159.301C158.849 16.4233 158.396 16.4247 157.944 16.4261C157.756 16.4267 157.569 16.4273 157.382 16.4273C157.202 16.4273 157.023 16.4274 156.844 16.4275C156.665 16.4277 156.486 16.4278 156.307 16.4278C156.268 16.4278 156.236 16.4025 156.236 16.3715V14.5428C156.236 14.5152 156.245 14.4876 156.261 14.4634C156.87 13.5577 157.483 12.6538 158.123 11.7628C158.546 11.1737 159.07 10.6156 159.644 10.1121C160.266 9.56631 161.12 9.31456 162.048 9.23571C162.604 9.18897 162.618 9.17263 162.619 8.73728C162.619 8.61088 162.619 8.48442 162.618 8.35794C162.617 8.12766 162.615 7.89731 162.62 7.66719C162.623 7.45993 162.519 7.36193 162.247 7.34729C160.721 7.26675 159.571 6.66299 158.776 5.665C158.213 4.95937 157.702 4.22823 157.19 3.49717C157.052 3.30046 156.915 3.10375 156.776 2.90755C156.603 2.66143 156.431 2.41418 156.261 2.16693C156.244 2.14215 156.235 2.11399 156.235 2.08583V0.288648C156.235 0.257672 156.267 0.232328 156.306 0.232328C156.516 0.232328 156.727 0.232427 156.937 0.232527C157.726 0.232902 158.515 0.233276 159.304 0.228385C159.589 0.226695 159.757 0.314555 159.898 0.508298C161.023 2.06185 162.154 3.61292 163.285 5.16403C163.577 5.56361 163.868 5.96318 164.159 6.36281C164.28 6.52859 164.4 6.69472 164.521 6.86084C164.807 7.25682 165.093 7.65277 165.389 8.04397C165.542 8.24616 165.533 8.41625 165.386 8.61788C163.551 11.1275 161.721 13.64 159.898 16.1552Z" fill="white"/>
<path d="M2.03991 1.76826L3.42372 3.21223L3.43908 3.19751L3.45412 3.18247L2.03991 1.76826ZM2.03991 9.08283L3.45412 7.66862L3.45412 7.66861L2.03991 9.08283ZM9.41865 9.08283L8.00443 7.66861L8.00443 7.66862L9.41865 9.08283ZM9.41865 1.76826L8.00443 3.18247L8.01948 3.19751L8.03483 3.21223L9.41865 1.76826ZM10.0603 47.7089V49.7089H12.0603V47.7089H10.0603ZM1.39828 47.7089H-0.601719V49.7089H1.39828V47.7089ZM10.0603 14.6008H12.0603V12.6008H10.0603V14.6008ZM1.39828 14.6008V12.6008H-0.601719V14.6008H1.39828ZM18.1548 4.71975L16.7804 3.26678L16.7705 3.27619L18.1548 4.71975ZM18.3473 27.1126L17.0359 28.6227L17.0465 28.6319L17.0572 28.6409L18.3473 27.1126ZM30.0249 30.5774L31.7659 31.5618L33.6757 28.184L29.8165 28.5883L30.0249 30.5774ZM21.4271 45.784L19.6861 44.7997L17.9988 47.784H21.4271V45.784ZM31.8857 45.784V47.784H33.0413L33.6184 46.7828L31.8857 45.784ZM43.4991 25.6369L45.2319 26.6357L45.2381 26.6249L43.4991 25.6369ZM41.9592 4.65559L40.5854 6.1091L40.5953 6.11836L41.9592 4.65559ZM24.9561 21.0171L23.5196 22.4087L23.5417 22.4315L23.5645 22.4536L24.9561 21.0171ZM24.9561 10.6869L23.5418 9.27269L24.9561 10.6869ZM35.158 10.6869L33.7215 12.0785L33.7436 12.1013L33.7664 12.1234L35.158 10.6869ZM35.158 21.0171L36.5722 22.4313L36.5722 22.4313L35.158 21.0171ZM56.0209 6.90129L57.4216 8.32891L56.0209 6.90129ZM89.6423 6.90129L91.043 5.47368V5.47367L89.6423 6.90129ZM89.6423 39.7527L91.043 41.1803V41.1803L89.6423 39.7527ZM62.758 12.8684L61.3222 11.4762L61.3167 11.4818L61.3113 11.4875L62.758 12.8684ZM62.758 33.7856L61.3113 35.1665L61.3167 35.1722L61.3222 35.1779L62.758 33.7856ZM82.9052 33.7856L81.4585 32.4046L82.9052 33.7856ZM82.9052 12.8684L81.4585 14.2494V14.2494L82.9052 12.8684ZM132.77 0.228348V-1.77165H130.77V0.228348H132.77ZM141.945 0.228348H143.945V-1.77165H141.945V0.228348ZM133.026 31.3474L131.054 31.6762L131.06 31.7159L131.068 31.7553L133.026 31.3474ZM133.861 34.1064L134.755 35.8953L136.431 35.0573L135.704 33.3303L133.861 34.1064ZM133.732 34.1705L131.856 34.8619L132.628 36.9587L134.627 35.9594L133.732 34.1705ZM132.513 31.604L130.724 32.4985L130.749 32.5481L130.777 32.5963L132.513 31.604ZM131.037 29.1658L132.637 27.9658L132.626 27.9504L132.614 27.9353L131.037 29.1658ZM108.452 0.228348L110.029 -1.00219L109.428 -1.77165H108.452V0.228348ZM98.9559 0.228348V-1.77165H96.9559V0.228348H98.9559ZM98.9559 45.1424H96.9559V47.1424H98.9559V45.1424ZM108.131 45.1424V47.1424H110.131V45.1424H108.131ZM107.81 14.28L105.838 14.6088L105.844 14.6485L105.852 14.6879L107.81 14.28ZM107.105 11.4569V9.45686H104.286L105.217 12.1176L107.105 11.4569ZM107.233 11.4569L109.11 10.7655L108.628 9.45686H107.233V11.4569ZM108.388 14.0875L106.599 14.982L106.607 14.9988L106.616 15.0156L108.388 14.0875ZM109.928 16.4616L111.501 15.2264L111.491 15.2133L111.48 15.2004L109.928 16.4616ZM132.449 45.1424L130.876 46.3776L131.477 47.1424H132.449V45.1424ZM141.945 45.1424V47.1424H143.945V45.1424H141.945ZM150.059 0.503363L148.442 -0.673661L148.44 -0.670401L150.059 0.503363ZM150.657 0.22852V2.22852L150.689 -1.77122L150.657 0.22852ZM144.572 8.04073L142.957 6.86045L142.957 6.86119L144.572 8.04073ZM144.568 8.61463L146.164 7.40873L146.163 7.40809L144.568 8.61463ZM145.436 9.79656L143.816 10.9689L143.82 10.9756L143.825 10.9822L145.436 9.79656ZM145.437 9.79774L147.057 8.62541L147.052 8.61876L147.048 8.61214L145.437 9.79774ZM145.798 10.2958L147.414 9.11755L147.414 9.11751L145.798 10.2958ZM146.672 11.4944L145.056 12.6726L145.056 12.6728L146.672 11.4944ZM150.06 16.1503L151.68 14.9782L151.679 14.9769L150.06 16.1503ZM150.654 16.4302L150.666 18.4302L150.666 18.4302L150.654 16.4302ZM153.02 16.4261L153.019 18.4261H153.02L153.02 16.4261ZM153.651 16.4263L153.651 18.4263H153.651V16.4263ZM153.696 14.4917L152.048 15.6249L152.049 15.6258L153.696 14.4917ZM153.181 13.7511L154.816 12.5984L154.815 12.597L153.181 13.7511ZM152.768 13.1618L151.129 14.3083V14.3083L152.768 13.1618ZM151.182 10.9936L149.617 12.24L149.618 12.2406L151.182 10.9936ZM147.71 9.31132L147.603 11.3084L147.605 11.3085L147.71 9.31132ZM147.338 8.99142L145.338 8.95154L145.338 8.95711L147.338 8.99142ZM147.339 8.30239H145.339L145.339 8.31395L147.339 8.30239ZM147.339 8.30066H149.339L149.339 8.28908L147.339 8.30066ZM147.338 7.92133L145.338 7.91481L145.338 7.91746L147.338 7.92133ZM147.909 7.42289L148.077 9.41587L148.079 9.4157L147.909 7.42289ZM150.313 6.54655L148.994 5.04295L148.994 5.0435L150.313 6.54655ZM151.835 4.89579L150.21 3.72874L150.21 3.72884L151.835 4.89579ZM153.696 2.19523L152.039 1.07579L152.036 1.07929L153.696 2.19523ZM153.65 0.230772V-1.76923L153.649 -1.76923L153.65 0.230772ZM153.113 0.231054L153.114 2.23105L153.113 0.231054ZM152.576 0.231336V2.23134L152.577 2.23134L152.576 0.231336ZM152.014 0.232494L152.02 2.23248L152.014 0.232494ZM150.656 0.22852V-1.77148L150.626 2.2283L150.656 0.22852ZM159.301 16.4301V14.4301L159.269 18.4298L159.301 16.4301ZM159.898 16.1552L161.515 17.3323L161.518 17.329L159.898 16.1552ZM159.301 16.4301V18.4301L159.331 14.4303L159.301 16.4301ZM157.944 16.4261L157.938 14.4261H157.938L157.944 16.4261ZM156.844 16.4275L156.842 14.4276L156.844 16.4275ZM156.261 14.4634L157.919 15.5828L157.921 15.5793L156.261 14.4634ZM158.123 11.7628L159.747 12.9299L159.747 12.9298L158.123 11.7628ZM159.644 10.1121L160.963 11.6156L160.964 11.6151L159.644 10.1121ZM162.048 9.23571L161.88 7.24274L161.879 7.2429L162.048 9.23571ZM162.619 8.73728L164.619 8.7438L164.619 8.74114L162.619 8.73728ZM162.618 8.35794L160.618 8.36947V8.36952L162.618 8.35794ZM162.62 7.66719L164.619 7.7071L164.62 7.70164L162.62 7.66719ZM162.247 7.34729L162.355 5.35018L162.353 5.35007L162.247 7.34729ZM158.776 5.665L160.34 4.4186L160.339 4.41796L158.776 5.665ZM157.19 3.49717L155.551 4.64364L155.551 4.64368L157.19 3.49717ZM156.776 2.90755L155.142 4.06019L155.143 4.06155L156.776 2.90755ZM156.261 2.16693L157.909 1.03373L157.909 1.03287L156.261 2.16693ZM156.306 0.232328V-1.76767V0.232328ZM156.937 0.232527L156.938 -1.76747L156.937 0.232527ZM159.304 0.228385L159.292 -1.77158L159.291 -1.77158L159.304 0.228385ZM159.898 0.508298L158.277 1.68044L158.278 1.68173L159.898 0.508298ZM163.285 5.16403L164.901 3.9857L164.901 3.98568L163.285 5.16403ZM164.159 6.36281L162.543 7.54084L162.543 7.54112L164.159 6.36281ZM164.521 6.86084L162.9 8.0332V8.03321L164.521 6.86084ZM165.389 8.04397L163.794 9.24985L163.794 9.25051L165.389 8.04397ZM165.386 8.61788L167 9.79815L167.001 9.79741L165.386 8.61788ZM2.5 5.42554C2.5 4.50234 2.80075 3.80924 3.42372 3.21223L0.656099 0.32428C-0.774148 1.69493 -1.5 3.44002 -1.5 5.42554H2.5ZM3.45412 7.66861C2.79062 7.00511 2.5 6.29 2.5 5.42554H-1.5C-1.5 7.38425 -0.764015 9.10733 0.625696 10.497L3.45412 7.66861ZM5.76136 8.62274C4.8364 8.62274 4.10493 8.31942 3.45412 7.66862L0.625695 10.497C2.02811 11.8995 3.7776 12.6227 5.76136 12.6227V8.62274ZM8.00443 7.66862C7.34093 8.33212 6.62582 8.62274 5.76136 8.62274V12.6227C7.72007 12.6227 9.44315 11.8868 10.8329 10.497L8.00443 7.66862ZM8.95856 5.42554C8.95856 6.29 8.66794 7.00511 8.00443 7.66861L10.8329 10.497C12.2226 9.10733 12.9586 7.38425 12.9586 5.42554H8.95856ZM8.03483 3.21223C8.6578 3.80924 8.95856 4.50234 8.95856 5.42554H12.9586C12.9586 3.44002 12.2327 1.69493 10.8025 0.32428L8.03483 3.21223ZM5.76136 2.22835C6.62582 2.22835 7.34093 2.51897 8.00443 3.18247L10.8329 0.354042C9.44315 -1.03567 7.72007 -1.77165 5.76136 -1.77165V2.22835ZM3.45412 3.18247C4.10492 2.53167 4.8364 2.22835 5.76136 2.22835V-1.77165C3.77761 -1.77165 2.02811 -1.04837 0.625697 0.354042L3.45412 3.18247ZM10.0603 45.7089H1.39828V49.7089H10.0603V45.7089ZM8.06028 14.6008V47.7089H12.0603V14.6008H8.06028ZM1.39828 16.6008H10.0603V12.6008H1.39828V16.6008ZM3.39828 47.7089V14.6008H-0.601719V47.7089H3.39828ZM19.5292 6.17269C22.2848 3.56605 25.7541 2.22835 30.0891 2.22835V-1.77165C24.8425 -1.77165 20.3555 -0.115085 16.7804 3.26681L19.5292 6.17269ZM15.4709 15.8199C15.4709 11.9477 16.8179 8.77262 19.539 6.16332L16.7705 3.27619C13.2465 6.65542 11.4709 10.8804 11.4709 15.8199H15.4709ZM19.6587 25.6025C16.8889 23.1972 15.4709 20.0065 15.4709 15.8199H11.4709C11.4709 21.044 13.3038 25.3817 17.0359 28.6227L19.6587 25.6025ZM29.8165 28.5883C25.8376 29.0051 22.4934 27.9952 19.6374 25.5843L17.0572 28.6409C20.7886 31.7908 25.2295 33.0907 30.2333 32.5665L29.8165 28.5883ZM23.1681 46.7684L31.7659 31.5618L28.2839 29.593L19.6861 44.7997L23.1681 46.7684ZM31.8857 43.784H21.4271V47.784H31.8857V43.784ZM41.7664 24.6381L30.1529 44.7852L33.6184 46.7828L45.2319 26.6357L41.7664 24.6381ZM44.7073 15.8199C44.7073 18.1127 43.8147 21.0329 41.7602 24.6488L45.2381 26.6249C47.4611 22.7123 48.7073 19.088 48.7073 15.8199H44.7073ZM40.5953 6.11836C43.338 8.67573 44.7073 11.8596 44.7073 15.8199H48.7073C48.7073 10.7975 46.9112 6.53844 43.3232 3.19282L40.5953 6.11836ZM30.0891 2.22835C34.4327 2.22835 37.878 3.55002 40.5854 6.10906L43.3331 3.20212C39.7953 -0.141824 35.3271 -1.77165 30.0891 -1.77165V2.22835ZM23.5645 22.4536C25.3369 24.1707 27.5606 25.0062 30.0891 25.0062V21.0062C28.5111 21.0062 27.3128 20.5156 26.3477 19.5807L23.5645 22.4536ZM20.967 15.8199C20.967 18.3787 21.7945 20.628 23.5196 22.4087L26.3925 19.6255C25.4655 18.6686 24.967 17.4532 24.967 15.8199H20.967ZM23.5418 9.27269C21.7951 11.0195 20.967 13.2618 20.967 15.8199H24.967C24.967 14.1861 25.465 13.0064 26.3703 12.1011L23.5418 9.27269ZM30.0891 6.63369C27.5412 6.63369 25.3102 7.50429 23.5418 9.27269L26.3703 12.1011C27.3395 11.1319 28.5306 10.6337 30.0891 10.6337V6.63369ZM36.5944 9.29531C34.8605 7.50542 32.6372 6.63369 30.0891 6.63369V10.6337C31.6474 10.6337 32.8034 11.1308 33.7215 12.0785L36.5944 9.29531ZM39.2112 15.8199C39.2112 13.2422 38.3481 10.9928 36.5496 9.25042L33.7664 12.1234C34.7054 13.0331 35.2112 14.2057 35.2112 15.8199H39.2112ZM36.5722 22.4313C38.349 20.6545 39.2112 18.3979 39.2112 15.8199H35.2112C35.2112 17.4339 34.7046 18.6421 33.7438 19.6029L36.5722 22.4313ZM30.0891 25.0062C32.6174 25.0062 34.8337 24.1699 36.5722 22.4313L33.7438 19.6029C32.8302 20.5165 31.6672 21.0062 30.0891 21.0062V25.0062ZM47.2196 23.327C47.2196 30.3517 49.6927 36.3457 54.6202 41.1803L57.4216 38.3251C53.2808 34.2624 51.2196 29.306 51.2196 23.327H47.2196ZM54.6202 5.47368C49.6927 10.3083 47.2196 16.3024 47.2196 23.327H51.2196C51.2196 17.348 53.2808 12.3916 57.4216 8.32891L54.6202 5.47368ZM72.8316 -1.77165C65.6642 -1.77165 59.5488 0.638123 54.6202 5.47368L57.4216 8.32891C61.5614 4.2672 66.6531 2.22835 72.8316 2.22835V-1.77165ZM91.043 5.47367C86.1144 0.638124 79.999 -1.77165 72.8316 -1.77165V2.22835C79.0101 2.22835 84.1018 4.2672 88.2416 8.32891L91.043 5.47367ZM98.4436 23.327C98.4436 16.3024 95.9705 10.3083 91.043 5.47368L88.2416 8.32891C92.3824 12.3916 94.4436 17.348 94.4436 23.327H98.4436ZM91.043 41.1803C95.9705 36.3457 98.4436 30.3517 98.4436 23.327H94.4436C94.4436 29.306 92.3824 34.2624 88.2416 38.3251L91.043 41.1803ZM72.8316 48.4257C79.999 48.4257 86.1144 46.0159 91.043 41.1803L88.2416 38.3251C84.1018 42.3868 79.0101 44.4257 72.8316 44.4257V48.4257ZM54.6202 41.1803C59.5488 46.0159 65.6642 48.4257 72.8316 48.4257V44.4257C66.6531 44.4257 61.5614 42.3868 57.4216 38.3251L54.6202 41.1803ZM60.7158 23.327C60.7158 19.6564 61.889 16.6754 64.2047 14.2494L61.3113 11.4875C58.2374 14.7078 56.7158 18.6992 56.7158 23.327H60.7158ZM64.2047 32.4046C61.889 29.9786 60.7158 26.9976 60.7158 23.327H56.7158C56.7158 27.9548 58.2374 31.9462 61.3113 35.1665L64.2047 32.4046ZM72.8316 36.0203C69.3875 36.0203 66.5499 34.8229 64.1938 32.3933L61.3222 35.1779C64.4414 38.3945 68.3195 40.0203 72.8316 40.0203V36.0203ZM81.4585 32.4046C79.1537 34.8192 76.3245 36.0203 72.8316 36.0203V40.0203C77.3804 40.0203 81.267 38.3983 84.3519 35.1665L81.4585 32.4046ZM84.9474 23.327C84.9474 26.9976 83.7742 29.9786 81.4585 32.4046L84.3519 35.1665C87.4258 31.9462 88.9474 27.9548 88.9474 23.327H84.9474ZM81.4585 14.2494C83.7742 16.6754 84.9474 19.6564 84.9474 23.327H88.9474C88.9474 18.6992 87.4258 14.7078 84.3519 11.4875L81.4585 14.2494ZM72.8316 10.6337C76.3245 10.6337 79.1537 11.8349 81.4585 14.2494L84.3519 11.4875C81.267 8.25569 77.3804 6.63369 72.8316 6.63369V10.6337ZM64.1938 14.2607C66.5499 11.8311 69.3875 10.6337 72.8316 10.6337V6.63369C68.3195 6.63369 64.4414 8.25947 61.3222 11.4762L64.1938 14.2607ZM132.77 2.22835H141.945V-1.77165H132.77V2.22835ZM134.77 28.5242V0.228348H130.77V28.5242H134.77ZM134.999 31.0186C134.843 30.0782 134.77 29.249 134.77 28.5242H130.77C130.77 29.5105 130.868 30.5633 131.054 31.6762L134.999 31.0186ZM135.704 33.3303C135.42 32.6561 135.177 31.8628 134.984 30.9395L131.068 31.7553C131.304 32.8851 131.617 33.9312 132.017 34.8825L135.704 33.3303ZM134.627 35.9594L134.755 35.8953L132.966 32.3175L132.838 32.3817L134.627 35.9594ZM130.777 32.5963C131.245 33.4162 131.601 34.1709 131.856 34.8619L135.609 33.4791C135.265 32.5447 134.808 31.5884 134.25 30.6117L130.777 32.5963ZM129.437 30.3658C129.865 30.9354 130.296 31.6413 130.724 32.4985L134.302 30.7096C133.79 29.6846 133.237 28.7651 132.637 27.9658L129.437 30.3658ZM106.875 1.45889L129.461 30.3964L132.614 27.9353L110.029 -1.00219L106.875 1.45889ZM98.9559 2.22835H108.452V-1.77165H98.9559V2.22835ZM100.956 45.1424V0.228348H96.9559V45.1424H100.956ZM108.131 43.1424H98.9559V47.1424H108.131V43.1424ZM106.131 17.1032V45.1424H110.131V17.1032H106.131ZM105.852 14.6879C106.044 15.6092 106.131 16.4113 106.131 17.1032H110.131C110.131 16.084 110.004 15.0041 109.768 13.8721L105.852 14.6879ZM105.217 12.1176C105.473 12.8506 105.683 13.6789 105.838 14.6088L109.783 13.9512C109.596 12.828 109.335 11.7741 108.992 10.7962L105.217 12.1176ZM107.233 9.45686H107.105V13.4569H107.233V9.45686ZM110.177 13.1931C109.732 12.3046 109.379 11.4961 109.11 10.7655L105.356 12.1483C105.686 13.043 106.102 13.9884 106.599 14.982L110.177 13.1931ZM111.48 15.2004C111.019 14.6335 110.577 13.9569 110.16 13.1595L106.616 15.0156C107.14 16.0148 107.724 16.9209 108.376 17.7227L111.48 15.2004ZM134.022 43.9072L111.501 15.2264L108.355 17.6967L130.876 46.3776L134.022 43.9072ZM141.945 43.1424H132.449V47.1424H141.945V43.1424ZM139.945 0.228348V45.1424H143.945V0.228348H139.945ZM151.676 1.68039C151.592 1.79634 151.422 1.97746 151.149 2.1043C150.892 2.22381 150.685 2.22922 150.625 2.22826L150.689 -1.77122C150.347 -1.77669 149.912 -1.73157 149.462 -1.52237C148.997 -1.30584 148.669 -0.985044 148.442 -0.673659L151.676 1.68039ZM146.186 9.221C148.022 6.7094 149.854 4.19477 151.678 1.67713L148.44 -0.670401C146.618 1.8425 144.79 4.35277 142.957 6.86045L146.186 9.221ZM146.163 7.40809C146.26 7.53526 146.466 7.86952 146.457 8.36188C146.449 8.83327 146.248 9.13683 146.187 9.22026L142.957 6.86119C142.749 7.14625 142.469 7.63567 142.458 8.29306C142.446 8.97141 142.724 9.49181 142.973 9.82117L146.163 7.40809ZM147.056 8.62419C146.772 8.23141 146.474 7.81894 146.164 7.40873L142.973 9.82053C143.253 10.1919 143.527 10.5705 143.816 10.9689L147.056 8.62419ZM147.048 8.61214L147.047 8.61096L143.825 10.9822L143.826 10.9833L147.048 8.61214ZM147.414 9.11751C147.296 8.95517 147.178 8.79196 147.057 8.62541L143.816 10.9701C143.936 11.1358 144.059 11.3048 144.182 11.4741L147.414 9.11751ZM148.288 10.3161L147.414 9.11755L144.182 11.474L145.056 12.6726L148.288 10.3161ZM151.679 14.9769C150.552 13.4204 149.419 11.8668 148.288 10.316L145.056 12.6728C146.187 14.2243 147.317 15.773 148.44 17.3237L151.679 14.9769ZM150.642 14.4303C150.704 14.4299 150.914 14.438 151.171 14.5621C151.442 14.6926 151.605 14.8736 151.68 14.9782L148.439 17.3225C148.655 17.6208 148.972 17.9426 149.434 18.165C149.882 18.381 150.319 18.4322 150.666 18.4302L150.642 14.4303ZM153.021 14.4261C152.233 14.4257 151.438 14.4253 150.641 14.4303L150.666 18.4302C151.447 18.4253 152.229 18.4257 153.019 18.4261L153.021 14.4261ZM153.652 14.4263L153.021 14.4261L153.02 18.4261L153.651 18.4263L153.652 14.4263ZM151.723 16.37C151.723 15.6558 152.095 15.1307 152.46 14.8419C152.823 14.5543 153.25 14.4263 153.651 14.4263V18.4263C154.335 18.4263 155.723 17.9153 155.723 16.37H151.723ZM151.723 14.5728V16.37H155.723V14.5728H151.723ZM152.049 15.6258C151.857 15.3478 151.723 14.9855 151.723 14.5728H155.723C155.723 14.1037 155.569 13.6851 155.344 13.3576L152.049 15.6258ZM151.547 14.9037C151.714 15.1413 151.881 15.3817 152.048 15.6249L155.344 13.3585C155.171 13.1071 154.995 12.853 154.816 12.5984L151.547 14.9037ZM151.129 14.3083C151.266 14.5043 151.406 14.7046 151.548 14.9051L154.815 12.597C154.679 12.4053 154.544 12.2125 154.406 12.0153L151.129 14.3083ZM149.618 12.2406C150.135 12.8892 150.612 13.5689 151.129 14.3083L154.406 12.0153C153.901 11.2923 153.354 10.5094 152.745 9.74658L149.618 12.2406ZM147.605 11.3085C148.607 11.3614 149.207 11.7253 149.617 12.24L152.746 9.74719C151.565 8.26592 149.865 7.42228 147.816 7.3141L147.605 11.3085ZM145.338 8.95711C145.33 9.39608 145.44 10.148 146.103 10.7283C146.671 11.2251 147.317 11.293 147.603 11.3084L147.818 7.31421C147.832 7.31495 148.29 7.3266 148.738 7.71886C149.282 8.19471 149.341 8.79401 149.337 9.02572L145.338 8.95711ZM145.339 8.31395C145.341 8.54796 145.342 8.752 145.338 8.95154L149.337 9.03129C149.342 8.77175 149.341 8.51624 149.339 8.29083L145.339 8.31395ZM145.339 8.30066V8.30239H149.339V8.30066H145.339ZM145.338 7.91746C145.338 8.05287 145.339 8.18706 145.339 8.31225L149.339 8.28908C149.339 8.16131 149.338 8.04257 149.338 7.92519L145.338 7.91746ZM147.742 5.42992C147.628 5.43951 147.416 5.45631 147.217 5.49352C147.041 5.52654 146.546 5.62749 146.094 6.02521C145.573 6.48443 145.424 7.04644 145.375 7.35033C145.335 7.59867 145.338 7.85013 145.338 7.91481L149.338 7.92785C149.339 7.77484 149.344 7.86101 149.325 7.98238C149.296 8.1593 149.186 8.63268 148.737 9.02755C148.359 9.36092 147.971 9.42182 147.954 9.42502C147.915 9.43242 147.913 9.42965 148.077 9.41587L147.742 5.42992ZM148.994 5.0435C148.824 5.19263 148.456 5.36923 147.74 5.43008L148.079 9.4157C149.218 9.31885 150.559 8.99195 151.632 8.0496L148.994 5.0435ZM150.21 3.72884C149.891 4.17326 149.476 4.62084 148.994 5.04295L151.632 8.05014C152.299 7.46524 152.932 6.79655 153.459 6.06275L150.21 3.72884ZM152.036 1.07929C151.429 1.98347 150.831 2.86507 150.21 3.72874L153.459 6.06284C154.119 5.14454 154.746 4.21825 155.356 3.31117L152.036 1.07929ZM151.721 2.11582C151.721 1.7288 151.841 1.36899 152.039 1.0758L155.354 3.31466C155.584 2.97304 155.721 2.55803 155.721 2.11582H151.721ZM151.721 0.287093V2.11582H155.721V0.287093H151.721ZM153.65 2.23077C153.249 2.23077 152.822 2.1028 152.459 1.81537C152.094 1.52669 151.721 1.00156 151.721 0.287093H155.721C155.721 -1.2587 154.333 -1.76923 153.65 -1.76923V2.23077ZM153.114 2.23105L153.651 2.23077L153.649 -1.76923L153.112 -1.76895L153.114 2.23105ZM152.577 2.23134L153.114 2.23105L153.112 -1.76895L152.575 -1.76866L152.577 2.23134ZM152.02 2.23248C152.208 2.2319 152.392 2.23134 152.576 2.23134V-1.76866C152.385 -1.76866 152.194 -1.76807 152.007 -1.7675L152.02 2.23248ZM150.626 2.2283C151.099 2.23538 151.57 2.23387 152.02 2.23248L152.007 -1.7675C151.552 -1.76609 151.117 -1.7648 150.686 -1.77126L150.626 2.2283ZM150.657 -1.77148H150.656V2.22852H150.657V-1.77148ZM159.269 18.4298C159.61 18.4353 160.046 18.3902 160.496 18.181C160.961 17.9644 161.289 17.6436 161.515 17.3323L158.281 14.9782C158.366 14.8623 158.536 14.6811 158.808 14.5543C159.065 14.4348 159.273 14.4294 159.333 14.4303L159.269 18.4298ZM159.301 14.4301H159.301V18.4301H159.301V14.4301ZM157.95 18.4261C158.406 18.4247 158.84 18.4234 159.272 18.4299L159.331 14.4303C158.858 14.4232 158.387 14.4247 157.938 14.4261L157.95 18.4261ZM157.382 18.4273C157.573 18.4273 157.763 18.4267 157.95 18.4261L157.938 14.4261C157.75 14.4267 157.565 14.4273 157.382 14.4273V18.4273ZM156.846 18.4275C157.025 18.4274 157.203 18.4273 157.382 18.4273V14.4273C157.201 14.4273 157.021 14.4274 156.842 14.4276L156.846 18.4275ZM156.307 18.4278C156.487 18.4278 156.667 18.4277 156.846 18.4275L156.842 14.4276C156.663 14.4277 156.485 14.4278 156.307 14.4278V18.4278ZM154.236 16.3715C154.236 17.9173 155.625 18.4278 156.307 18.4278V14.4278C156.709 14.4278 157.136 14.5558 157.499 14.8432C157.863 15.1319 158.236 15.6571 158.236 16.3715H154.236ZM154.236 14.5428V16.3715H158.236V14.5428H154.236ZM154.604 13.3439C154.373 13.6856 154.236 14.1006 154.236 14.5428H158.236C158.236 14.9298 158.117 15.2896 157.919 15.5828L154.604 13.3439ZM156.499 10.5958C155.839 11.5141 155.211 12.4403 154.601 13.3474L157.921 15.5793C158.529 14.6751 159.126 13.7935 159.747 12.9299L156.499 10.5958ZM158.326 8.60848C157.659 9.19335 157.026 9.86204 156.499 10.5959L159.747 12.9298C160.066 12.4854 160.482 12.0378 160.963 11.6156L158.326 8.60848ZM161.879 7.2429C160.739 7.33975 159.398 7.66665 158.325 8.60901L160.964 11.6151C161.134 11.466 161.502 11.2894 162.217 11.2285L161.879 7.2429ZM160.619 8.73076C160.619 8.88376 160.613 8.7976 160.633 8.67623C160.661 8.49931 160.772 8.02593 161.22 7.63106C161.599 7.29768 161.986 7.23679 162.003 7.23358C162.043 7.22618 162.044 7.22896 161.88 7.24274L162.215 11.2287C162.33 11.2191 162.542 11.2023 162.74 11.1651C162.916 11.1321 163.411 11.0311 163.863 10.6334C164.385 10.1742 164.534 9.61216 164.582 9.30827C164.622 9.05994 164.619 8.80847 164.619 8.7438L160.619 8.73076ZM160.618 8.36952C160.619 8.4973 160.619 8.61603 160.619 8.73341L164.619 8.74114C164.619 8.60574 164.619 8.47155 164.618 8.34636L160.618 8.36952ZM160.62 7.62728C160.615 7.88745 160.617 8.14362 160.618 8.36947L164.618 8.34641C164.617 8.11169 164.615 7.90716 164.619 7.7071L160.62 7.62728ZM162.14 9.34439C162.126 9.34366 161.667 9.33201 161.219 8.93977C160.676 8.46389 160.616 7.86455 160.62 7.63274L164.62 7.70164C164.627 7.26257 164.517 6.5106 163.854 5.93025C163.287 5.43353 162.64 5.36556 162.355 5.35019L162.14 9.34439ZM157.212 6.9114C158.392 8.39268 160.092 9.23633 162.142 9.34451L162.353 5.35007C161.35 5.29717 160.75 4.93331 160.34 4.4186L157.212 6.9114ZM155.551 4.64368C156.057 5.36657 156.604 6.14928 157.212 6.91204L160.339 4.41796C159.822 3.76947 159.346 3.08988 158.829 2.35067L155.551 4.64368ZM155.143 4.06155C155.278 4.25338 155.413 4.44633 155.551 4.64364L158.829 2.35071C158.692 2.15459 158.551 1.95413 158.41 1.75354L155.143 4.06155ZM154.613 3.30013C154.786 3.55147 154.962 3.8056 155.142 4.06019L158.411 1.7549C158.243 1.51726 158.076 1.27689 157.909 1.03373L154.613 3.30013ZM154.235 2.08583C154.235 2.55491 154.388 2.97348 154.614 3.301L157.909 1.03287C158.1 1.31083 158.235 1.67308 158.235 2.08583H154.235ZM154.235 0.288648V2.08583H158.235V0.288648H154.235ZM156.306 -1.76767C155.622 -1.76767 154.235 -1.25667 154.235 0.288648H158.235C158.235 1.00276 157.862 1.52788 157.497 1.81675C157.134 2.10433 156.707 2.23233 156.306 2.23233V-1.76767ZM156.938 -1.76747C156.728 -1.76757 156.517 -1.76767 156.306 -1.76767V2.23233C156.516 2.23233 156.726 2.23243 156.936 2.23253L156.938 -1.76747ZM159.291 -1.77158C158.511 -1.76673 157.728 -1.7671 156.938 -1.76747L156.936 2.23253C157.724 2.2329 158.52 2.23329 159.316 2.22835L159.291 -1.77158ZM161.518 -0.663847C161.302 -0.962162 160.985 -1.28398 160.524 -1.50639C160.076 -1.72244 159.639 -1.77364 159.292 -1.77158L159.315 2.22835C159.254 2.22872 159.044 2.2206 158.786 2.0965C158.516 1.96604 158.353 1.78502 158.277 1.68044L161.518 -0.663847ZM164.901 3.98568C163.77 2.43414 162.641 0.885541 161.517 -0.665137L158.278 1.68173C159.406 3.23816 160.538 4.79169 161.669 6.34239L164.901 3.98568ZM165.775 5.18477C165.484 4.78496 165.193 4.38521 164.901 3.9857L161.669 6.34237C161.961 6.742 162.252 7.1414 162.543 7.54084L165.775 5.18477ZM166.141 5.68848C166.021 5.52288 165.899 5.35375 165.775 5.18449L162.543 7.54112C162.662 7.70343 162.78 7.86656 162.9 8.0332L166.141 5.68848ZM166.985 6.8381C166.704 6.46628 166.429 6.08722 166.141 5.68848L162.9 8.03321C163.185 8.42642 163.483 8.83927 163.794 9.24985L166.985 6.8381ZM167.001 9.79741C167.209 9.51235 167.488 9.02293 167.5 8.36555C167.511 7.68719 167.233 7.16679 166.984 6.83744L163.794 9.25051C163.698 9.12334 163.492 8.78908 163.5 8.29673C163.508 7.82534 163.71 7.52178 163.77 7.43834L167.001 9.79741ZM161.518 17.329C163.339 14.8161 165.167 12.3058 167 9.79815L163.771 7.4376C161.935 9.9492 160.104 12.4638 158.279 14.9815L161.518 17.329Z" fill="white" mask="url(#path-1-inside-1_2004_238)"/>
</g>
</svg>
