<svg width="312" height="54" viewBox="0 0 312 54" fill="none" xmlns="http://www.w3.org/2000/svg">
<path d="M121.094 0.0922699H123.05C125.026 0.0922699 126.215 1.11556 126.215 2.81702C126.215 4.51849 125.018 5.52974 123.05 5.52974H122.55V7.13489H121.094V0.0922699ZM123.01 4.25765C124.195 4.25765 124.715 3.78012 124.715 2.81702C124.715 1.85393 124.175 1.36837 123.01 1.36837H122.55V4.25765H123.01Z" fill="#FDCD00"/>
<path d="M135.273 3.61561C135.273 1.53292 136.898 -7.62939e-06 138.934 -7.62939e-06C140.971 -7.62939e-06 142.596 1.53292 142.596 3.61561C142.596 5.6983 140.971 7.23122 138.934 7.23122C136.898 7.23122 135.273 5.6983 135.273 3.61561ZM141.104 3.61561C141.104 2.29938 140.229 1.29616 138.938 1.29616C137.648 1.29616 136.773 2.29938 136.773 3.61561C136.773 4.93184 137.648 5.93506 138.938 5.93506C140.229 5.93506 141.104 4.93184 141.104 3.61561Z" fill="#FDCD00"/>
<path d="M151.338 5.74644L152.524 5.06425C152.834 5.56988 153.242 5.94308 153.959 5.94308C154.564 5.94308 154.947 5.64211 154.947 5.22878C154.947 4.73118 154.552 4.55462 153.887 4.26569L153.524 4.10919C152.471 3.66375 151.774 3.10596 151.774 1.92216C151.774 0.834666 152.605 0.00801086 153.907 0.00801086C154.835 0.00801086 155.5 0.329042 155.98 1.16774L154.847 1.89407C154.597 1.44864 154.326 1.27207 153.911 1.27207C153.496 1.27207 153.213 1.54094 153.213 1.89407C153.213 2.32746 153.484 2.50403 154.109 2.77289L154.472 2.9294C155.71 3.4591 156.407 3.99682 156.407 5.20872C156.407 6.51291 155.379 7.2272 153.992 7.2272C152.605 7.2272 151.766 6.58514 151.338 5.74644Z" fill="#FDCD00"/>
<path d="M167.11 1.36837H165.089V0.0922699H170.586V1.36436H168.565V7.13088H167.11V1.36837Z" fill="#FDCD00"/>
<path d="M179.167 3.61561C179.167 1.53292 180.792 -7.62939e-06 182.829 -7.62939e-06C184.865 -7.62939e-06 186.49 1.53292 186.49 3.61561C186.49 5.6983 184.865 7.23122 182.829 7.23122C180.792 7.23122 179.167 5.6983 179.167 3.61561ZM184.994 3.61561C184.994 2.29938 184.119 1.29616 182.829 1.29616C181.538 1.29616 180.663 2.29938 180.663 3.61561C180.663 4.93184 181.538 5.93506 182.829 5.93506C184.119 5.93506 184.994 4.93184 184.994 3.61561Z" fill="#FDCD00"/>
<path d="M195.229 5.74644L196.414 5.06425C196.725 5.56988 197.132 5.94308 197.85 5.94308C198.455 5.94308 198.838 5.64211 198.838 5.22878C198.838 4.73118 198.443 4.55462 197.777 4.26569L197.414 4.10919C196.362 3.66375 195.664 3.10596 195.664 1.92216C195.664 0.834666 196.495 0.00801086 197.798 0.00801086C198.725 0.00801086 199.39 0.329042 199.87 1.16774L198.737 1.89407C198.487 1.44864 198.217 1.27207 197.802 1.27207C197.386 1.27207 197.104 1.54094 197.104 1.89407C197.104 2.32746 197.374 2.50403 197.999 2.77289L198.362 2.9294C199.6 3.4591 200.298 3.99682 200.298 5.20872C200.298 6.51291 199.269 7.2272 197.882 7.2272C196.495 7.2272 195.656 6.58514 195.229 5.74644Z" fill="#FDCD00"/>
<path d="M9.40796 15.2169H26.7279L37.8255 26.2604L55.1454 15.2169H74.1469L33.4542 42.8256L9.40796 15.2169Z" fill="white"/>
<path d="M11.3315 23.1022L24.018 37.8937L0.5 53.9373L11.3315 23.1022Z" fill="#FDCD00"/>
<path d="M71.8684 21.6897L61.6902 52.3441H45.3906L50.6289 36.2364L71.8684 21.6897Z" fill="white"/>
<path d="M80.7804 15.2169H99.7134L85.5429 52.3441H67.2068L80.7804 15.2169Z" fill="white"/>
<path d="M154.367 21.3606C152.056 17.5082 146.269 15.5379 139.954 15.3934L106.258 15.2169L92.8055 52.3441H111.734L115.545 41.5776L119.594 41.6979L126.215 52.3482H147.814L138.938 39.8039C140.055 39.5952 150.1 37.3801 154.294 29.2941C155.452 27.0629 155.899 23.9208 154.367 21.3646V21.3606ZM135.982 29.274C135.716 30.9314 135.083 31.7379 132.292 32.6288C131.438 32.9017 129.873 32.998 128.974 32.998H118.715L121.344 25.5982L131.03 25.5501C132.559 25.542 133.466 25.5099 134.849 26.6055C135.418 27.0549 136.164 28.1103 135.978 29.274H135.982Z" fill="white"/>
<path d="M163.916 15.2169H182.829L169.348 52.3441H150.524L163.916 15.2169Z" fill="white"/>
<path d="M227.994 15.2169H209.411L172.247 52.3441H192.156L196.741 47.4123H216.408L217.614 52.3441H238.127L227.989 15.2169H227.994ZM204.584 38.5278L213.271 29.7636L214.96 38.5278H204.584Z" fill="white"/>
<path d="M240.543 52.3441L254.298 15.2169H271.674L286.155 32.4041L292.067 15.2169H310.528L297.015 52.3441H280.36L265.279 34.6834L258.883 52.3441H240.543Z" fill="white"/>
<path d="M107.819 0H11.2791V2.81304H107.819V0Z" fill="#FDCD00"/>
<path d="M107.819 4.52653H11.2791V7.33956H107.819V4.52653Z" fill="#FDCD00"/>
<path d="M311.5 0H214.96V2.81304H311.5V0Z" fill="#FDCD00"/>
<path d="M311.5 4.52653H214.96V7.33956H311.5V4.52653Z" fill="#FDCD00"/>
</svg>
