<svg width="26" height="29" viewBox="0 0 26 29" fill="none" xmlns="http://www.w3.org/2000/svg">
<path fill-rule="evenodd" clip-rule="evenodd" d="M4.79025 9.22474C4.79025 4.67847 8.46179 0.985565 13 0.985565C17.5382 0.985565 21.2097 4.67847 21.2097 9.22474V11.1881C21.6996 11.2709 22.152 11.4038 22.5807 11.6231C23.5876 12.1383 24.4054 12.9599 24.9177 13.9695C25.2397 14.6041 25.3743 15.2905 25.4381 16.074C25.5 16.8355 25.5 17.7761 25.5 18.944V21.045C25.5 22.2129 25.5 23.1536 25.4381 23.915C25.3743 24.6985 25.2397 25.3849 24.9177 26.0195C24.4054 27.0291 23.5876 27.8507 22.5807 28.3659C21.9472 28.69 21.262 28.8253 20.4807 28.8894C19.7218 28.9517 18.7846 28.9517 17.6219 28.9517H8.37815C7.21543 28.9517 6.27816 28.9517 5.51928 28.8894C4.73802 28.8253 4.05283 28.69 3.41935 28.3659C2.41242 27.8507 1.59456 27.0291 1.08227 26.0195C0.760255 25.3849 0.625695 24.6985 0.561941 23.915C0.499982 23.1536 0.49999 22.2129 0.5 21.045V18.9441C0.49999 17.7761 0.499982 16.8355 0.561941 16.074C0.625695 15.2905 0.760255 14.6041 1.08227 13.9695C1.59456 12.9599 2.41242 12.1383 3.41935 11.6231C3.84805 11.4038 4.30044 11.2709 4.79025 11.1881V9.22474ZM6.9089 11.0434C7.3538 11.0373 7.84203 11.0373 8.37819 11.0374H17.6218C18.158 11.0373 18.6462 11.0373 19.0911 11.0434V9.22474C19.0911 5.84036 16.3599 3.10421 13 3.10421C9.64008 3.10421 6.9089 5.84036 6.9089 9.22474V11.0434ZM5.69251 13.2111C5.04296 13.2644 4.66859 13.3638 4.38433 13.5093C3.77674 13.8201 3.28195 14.3166 2.97159 14.9282C2.826 15.2151 2.72676 15.5926 2.67361 16.2458C2.61946 16.9112 2.61864 17.7656 2.61864 18.9893V20.9997C2.61864 22.2234 2.61946 23.0778 2.67361 23.7432C2.72675 24.3964 2.826 24.7739 2.97159 25.0608C3.28195 25.6724 3.77674 26.1689 4.38433 26.4797C4.66859 26.6252 5.04296 26.7246 5.69251 26.7779C6.35456 26.8322 7.2048 26.833 8.42373 26.833H17.5763C18.7952 26.833 19.6454 26.8322 20.3075 26.7779C20.957 26.7246 21.3314 26.6252 21.6157 26.4797C22.2233 26.1689 22.7181 25.6724 23.0284 25.0608C23.174 24.7739 23.2732 24.3964 23.3264 23.7432C23.3805 23.0778 23.3814 22.2234 23.3814 20.9997V18.9893C23.3814 17.7656 23.3805 16.9112 23.3264 16.2458C23.2732 15.5926 23.174 15.2151 23.0284 14.9282C22.7181 14.3166 22.2233 13.8201 21.6157 13.5093C21.3314 13.3638 20.957 13.2644 20.3075 13.2111C19.6454 13.1568 18.7952 13.156 17.5763 13.156H8.42373C7.2048 13.156 6.35456 13.1568 5.69251 13.2111ZM13 17.4992C13.585 17.4992 14.0593 17.9735 14.0593 18.5585V21.4305C14.0593 22.0155 13.585 22.4898 13 22.4898C12.415 22.4898 11.9407 22.0155 11.9407 21.4305V18.5585C11.9407 17.9735 12.415 17.4992 13 17.4992Z" fill="#003B6B"/>
</svg>
