<svg width="26" height="30" viewBox="0 0 26 30" fill="none" xmlns="http://www.w3.org/2000/svg">
<path fill-rule="evenodd" clip-rule="evenodd" d="M13 3.15052C10.1115 3.15052 7.74435 5.52748 7.74435 8.4914C7.74435 11.4553 10.1115 13.8323 13 13.8323C15.8885 13.8323 18.2557 11.4553 18.2557 8.4914C18.2557 5.52748 15.8885 3.15052 13 3.15052ZM5.47163 8.4914C5.47163 4.30077 8.82805 0.877808 13 0.877808C17.1719 0.877808 20.5284 4.30077 20.5284 8.4914C20.5284 12.682 17.1719 16.105 13 16.105C8.82805 16.105 5.47163 12.682 5.47163 8.4914ZM9.23471 18.8701C9.30511 18.8701 9.37649 18.8701 9.44889 18.8701H16.5511C16.6235 18.8701 16.6949 18.8701 16.7653 18.8701C18.5414 18.8696 19.6927 18.8693 20.665 19.1682C22.8485 19.8394 24.5493 21.568 25.2075 23.7668C25.5007 24.746 25.5004 25.9063 25.5 27.7113C25.5 27.7809 25.4999 27.8515 25.4999 27.9231C25.4999 28.5507 24.9912 29.0595 24.3636 29.0595C23.736 29.0595 23.2272 28.5507 23.2272 27.9231C23.2272 25.8327 23.2152 25.0362 23.0303 24.4186C22.5868 22.9372 21.4456 21.7858 19.9972 21.3406C19.395 21.1555 18.6171 21.1428 16.5511 21.1428H9.44889C7.38291 21.1428 6.605 21.1555 6.00276 21.3406C4.55443 21.7858 3.41317 22.9372 2.96971 24.4186C2.78482 25.0362 2.77278 25.8327 2.77278 27.9231C2.77278 28.5507 2.26402 29.0595 1.63642 29.0595C1.00883 29.0595 0.500065 28.5507 0.500065 27.9231C0.500065 27.8515 0.500048 27.781 0.500032 27.7113C0.499607 25.9063 0.499334 24.746 0.792454 23.7668C1.45069 21.568 3.1515 19.8394 5.33498 19.1682C6.30725 18.8693 7.45865 18.8696 9.23471 18.8701Z" fill="#003B6B"/>
</svg>
