<svg width="358" height="357" viewBox="0 0 358 357" fill="none" xmlns="http://www.w3.org/2000/svg">
<path d="M48.7224 190.361C40.1812 208.864 36.7201 233.615 35.1457 253.917C34.5067 262.175 34.0408 283.177 34.0408 283.355C34.0408 285.669 33.5517 289.501 34.5549 291.543C34.8654 292.175 35.7776 291.623 35.5009 290.993C35.6312 291.251 35.4313 284.621 35.4224 284.106C35.0654 260.502 35.6134 269.635 36.5273 256.598C37.4327 243.935 39.1462 231.342 41.6574 218.896C43.7984 209.366 46.4596 199.959 49.6292 190.719C49.797 190.211 48.958 189.855 48.7224 190.361Z" fill="#005BAA"/>
<path d="M334.997 137.475C334.922 133.894 335.481 129.716 333.569 126.494C332.827 125.256 331.807 124.206 330.59 123.428C329.372 122.649 327.99 122.163 326.552 122.008C320.867 121.368 314.91 121.652 309.187 121.537C290.193 121.145 268.489 121.147 249.281 122.087C245.966 122.249 242.612 122.167 239.888 124.251C238.752 125.131 237.834 126.259 237.204 127.549C236.575 128.839 236.251 130.255 236.258 131.69C236.24 131.88 236.285 132.07 236.384 132.233C236.483 132.395 236.632 132.522 236.809 132.594C236.72 166.138 238.594 210.4 240.558 256.245C240.756 260.888 240.279 266.007 244.504 269.074C247.539 271.279 251.173 270.761 254.725 270.727C274.644 270.53 299.516 271.261 324.972 269.586C328.407 269.36 331.477 269.029 333.851 266.32C336.134 263.716 336.127 260.653 336.141 257.386C336.257 228.839 335.364 155.172 334.997 137.475ZM334.367 258.882C334.367 263.332 332.392 267.183 327.539 267.782C314.56 269.364 277.866 269.239 261.79 269.316C257.647 269.335 253.306 269.782 249.203 269.433C247.268 269.25 245.472 268.354 244.166 266.921C242.859 265.487 242.136 263.619 242.137 261.681C241.766 256 237.871 134.972 237.836 132.599C237.992 132.515 238.123 132.39 238.213 132.238C238.304 132.086 238.351 131.912 238.35 131.734C238.507 122.599 250.465 124.096 256.858 123.863C276.727 123.141 301.749 123.279 320.238 123.785C322.764 123.854 325.799 123.516 328.21 124.454C332.901 126.279 332.899 130.75 332.985 135.04C333.169 144.244 334.367 254.396 334.367 258.89V258.882Z" fill="#005BAA"/>
<path d="M288.904 163.882C282.353 162.876 277.51 168.077 276.944 174.939C276.839 176.118 276.984 177.307 277.372 178.426C277.759 179.545 278.38 180.57 279.193 181.432C280.643 182.66 282.202 183.754 283.851 184.7C286.633 186.947 284.459 188.581 281.601 213.428C281.298 216.066 281.291 219.078 284.443 220C286.177 220.288 287.943 220.341 289.691 220.158C293.875 220.138 298.138 220.236 302.365 220.039C300.63 212.563 298.166 201.537 296.328 193.278C296.159 192.519 296.223 191.726 296.511 191.004C296.8 190.281 297.299 189.661 297.945 189.225C299.48 188.275 300.802 187.019 301.827 185.536C302.853 184.053 303.56 182.375 303.905 180.606C304.964 173.241 297.427 165.188 288.904 163.882Z" fill="#005BAA"/>
<path d="M301.532 221.416C299.793 221.493 301.755 221.393 288.667 221.731C286.626 222.039 284.542 221.918 282.55 221.375C279.269 219.971 279.323 216.811 279.669 213.78C281.24 199.965 282.78 193.643 283.141 189.026C283.382 185.957 279.584 185.056 277.695 183.123C276.431 181.872 275.519 180.312 275.051 178.598C274.626 176.282 274.785 173.896 275.516 171.656C276.246 169.416 277.523 167.393 279.234 165.768C268.484 170.615 265.462 183.347 275.842 190.129C276.463 190.535 276.954 191.111 277.255 191.788C277.556 192.465 277.655 193.214 277.54 193.946C275.962 203.903 273.904 217.596 272.843 224.602C272.759 225.159 272.797 225.728 272.955 226.269C273.114 226.809 273.388 227.309 273.76 227.733C274.133 228.156 274.593 228.494 275.109 228.722C275.626 228.95 276.186 229.063 276.751 229.052C282.513 228.947 292.339 228.759 298.337 228.778C298.924 228.78 299.504 228.65 300.033 228.396C300.561 228.142 301.026 227.772 301.391 227.314C301.755 226.855 302.011 226.32 302.139 225.749C302.266 225.177 302.262 224.585 302.126 224.015C301.955 223.269 301.769 222.361 301.532 221.416Z" fill="#005BAA"/>
<path d="M289.179 274.466C288.127 274.255 287.042 274.271 285.996 274.513C284.951 274.755 283.97 275.218 283.119 275.869C282.268 276.52 281.566 277.346 281.061 278.29C280.556 279.234 280.26 280.275 280.191 281.343C280.123 282.411 280.285 283.481 280.666 284.481C281.046 285.481 281.637 286.389 282.399 287.143C283.16 287.897 284.075 288.479 285.08 288.852C286.086 289.224 287.161 289.378 288.231 289.302C290.178 289.382 292.079 288.699 293.527 287.399C294.975 286.099 295.855 284.285 295.979 282.346C296.103 280.407 295.46 278.496 294.189 277.024C292.919 275.551 291.12 274.633 289.179 274.466Z" fill="#011E4B"/>
<path d="M348.417 120.749C348.415 119.231 348.111 117.729 347.523 116.33C346.935 114.93 346.075 113.661 344.992 112.594C343.91 111.528 342.626 110.686 341.216 110.117C339.805 109.547 338.295 109.262 336.774 109.278H313.253C313.156 110.195 312.915 111.092 312.539 111.934C312.463 112.051 312.352 112.141 312.222 112.191C312.092 112.242 311.949 112.25 311.814 112.215C311.679 112.181 311.558 112.104 311.468 111.997C311.379 111.89 311.326 111.758 311.316 111.619C311.209 108.972 313.726 94.1892 309.106 83.559C307.41 79.8375 304.662 76.69 301.2 74.5022C297.737 72.3144 293.709 71.1812 289.61 71.2414C285.291 71.3297 281.076 72.5894 277.42 74.8852C273.764 77.181 270.803 80.4263 268.856 84.2728C265.027 92.0265 266.252 101.274 267.198 109.577C267.198 109.864 268.706 109.725 254.882 109.775C249.307 109.85 243.759 110.566 238.349 111.911C235.27 112.7 232.543 114.49 230.598 116.997C228.654 119.505 227.603 122.588 227.612 125.757C227.228 146.227 231.766 254.79 232.789 277.743C232.947 281.246 232.749 284.906 234.327 288.133C235.289 290.072 236.72 291.743 238.491 292.993C240.262 294.244 242.317 295.035 244.471 295.295C247.244 295.466 250.024 295.479 252.798 295.335C273.403 295.098 303.325 295.869 332.042 293.878C334.409 293.823 336.727 293.188 338.791 292.029C344.881 288.437 348.371 278.512 348.499 271.249C348.574 267.138 348.505 283.763 348.417 120.749ZM301.45 108.865C301.456 109.031 301.397 109.192 301.287 109.316C301.177 109.44 301.023 109.518 300.858 109.533H278.801C278.828 110.498 278.736 111.463 278.526 112.406H277.262C277.05 111.384 276.984 110.338 277.064 109.298C276.512 103.78 275.645 97.7278 277.38 92.3362C278.191 89.6431 279.833 87.2733 282.072 85.5635C284.31 83.8537 287.033 82.8908 289.851 82.8114C302.878 83.0482 301.256 99.8531 301.45 108.865ZM276.314 79.506C278.608 77.5558 281.286 76.1068 284.176 75.2526C287.066 74.3985 290.104 74.158 293.093 74.5469C293.684 74.627 293.488 75.4921 292.973 75.5312C287.172 76.0047 281.292 76.8698 276.951 81.1987C272.132 86.0047 272.375 92.4928 271.111 98.6712C270.993 99.1839 270.283 99.0272 270.243 98.5537C269.724 91.9037 271.184 84.1108 276.314 79.506ZM338.628 290.397C335.985 292.207 333.025 292.326 329.946 292.522C317.273 293.27 267.396 293.546 255.122 293.59C249.559 293.59 242.967 294.809 238.468 290.796C234.916 287.648 234.72 283.476 234.522 279.069C232.865 241.643 229.233 124.447 230.141 121.895C230.857 119.882 232.13 118.112 233.813 116.792C235.497 115.472 237.521 114.655 239.652 114.437H331.288C337.129 114.437 340.76 119.065 341.352 125.003C343.966 291.515 343.935 281.175 343.326 283.638C342.65 286.392 340.976 288.799 338.628 290.397Z" fill="#011E4B"/>
<path d="M96.9481 117.995C91.2486 119.214 85.7883 119.472 80.4922 116.696C75.8815 114.28 71.4904 109.576 70.5854 104.339C69.7144 99.3014 73.1915 93.1248 75.4049 88.7549C77.8074 84.0991 80.5926 79.6499 83.732 75.4529C84.0479 75.0204 83.3321 74.465 82.9823 74.862C78.8136 79.665 75.3687 85.0478 72.756 90.841C70.4177 95.9122 67.5795 101.624 69.7965 107.217C73.8609 117.489 87.0592 123.782 97.3819 119.024C97.9763 118.744 97.5389 117.869 96.9481 117.995Z" fill="#011E4B"/>
<path d="M88.028 87.6546C88.3404 87.2577 87.9191 86.4852 87.3979 86.8679C86.3483 87.6368 85.3023 88.3987 84.3188 89.2673C83.3337 89.9623 82.4567 90.7984 81.7163 91.7486C80.9059 93.2545 83.0497 95.2641 84.1242 95.9993C84.5937 96.3197 85.2274 95.7643 85.0703 95.2517C84.8063 94.4984 84.4197 93.7936 83.9261 93.1655C83.7679 92.9331 83.5969 92.7097 83.4138 92.4962C85.0942 91.0235 86.6385 89.4031 88.028 87.6546Z" fill="#011E4B"/>
<path d="M81.7539 81.1203C82.6964 82.0601 84.9115 82.2791 84.1226 84.5824C83.9601 85.0541 84.5992 85.6095 85.0294 85.2944C87.4534 83.5055 84.5171 80.022 82.2269 80.022C82.0996 80.0225 81.9751 80.0601 81.8689 80.1302C81.7627 80.2002 81.6793 80.2997 81.6291 80.4164C81.5788 80.5331 81.5639 80.6619 81.586 80.7869C81.6082 80.912 81.6665 81.0279 81.7539 81.1203Z" fill="#011E4B"/>
<path d="M95.4481 87.4945C95.1658 87.3919 94.8659 87.3462 94.5657 87.36C94.2655 87.3738 93.971 87.4469 93.6994 87.5751C93.4278 87.7032 93.1843 87.8839 92.9832 88.1065C92.7821 88.3292 92.6273 88.5895 92.5279 88.8723C92.4011 89.4223 93.1598 89.9759 93.5989 89.4632C95.0608 87.7331 97.1582 90.6273 98.4184 91.2735C98.5397 91.3425 98.6805 91.3699 98.819 91.3514C98.9575 91.3328 99.086 91.2694 99.1848 91.1709C99.2836 91.0724 99.3472 90.9442 99.3658 90.8061C99.3844 90.668 99.3569 90.5276 99.2877 90.4066C98.8813 89.6853 98.3309 89.0547 97.6705 88.5538C97.0101 88.053 96.2538 87.6924 95.4481 87.4945Z" fill="#011E4B"/>
<path d="M88.383 109.139C91.1498 110.072 96.1853 109.581 97.2241 106.306C97.2534 106.192 97.2488 106.073 97.2109 105.963C97.173 105.852 97.1034 105.755 97.0107 105.683C96.918 105.612 96.8063 105.569 96.6895 105.56C96.5726 105.551 96.4556 105.576 96.353 105.633C95.3013 106.413 94.2078 107.135 93.0776 107.797C91.6658 108.382 90.1078 108.519 88.6151 108.191C88.4889 108.16 88.3557 108.181 88.2447 108.248C88.1337 108.315 88.0541 108.424 88.0233 108.549C87.9926 108.675 88.0132 108.808 88.0806 108.919C88.1481 109.029 88.2569 109.109 88.383 109.139Z" fill="#011E4B"/>
<path d="M86.8922 123.15C84.7834 129.768 83.0316 136.494 81.6443 143.299C81.4373 144.367 83.1009 144.834 83.3008 143.771C84.586 136.959 86.2264 130.177 87.8401 123.426C87.8688 123.303 87.8492 123.174 87.7854 123.065C87.7216 122.956 87.6184 122.876 87.4971 122.841C87.3757 122.805 87.2454 122.818 87.1329 122.875C87.0204 122.933 86.9343 123.031 86.8922 123.15Z" fill="#011E4B"/>
<path d="M119.68 76.1218C112.332 71.3728 122.444 63.8398 119.877 49.0071C117.31 34.1743 90.319 32.9871 81.0048 53.3752C71.6907 73.7633 95.0135 74.3561 102.632 76.711C106.459 77.8947 108.747 79.5465 113.129 82.1436C115.852 83.7562 115.821 90.0539 115.695 93.7136C115.683 93.9517 115.74 94.1881 115.856 94.3961C115.973 94.604 116.146 94.7751 116.356 94.8898C116.565 95.0046 116.803 95.0584 117.042 95.0453C117.28 95.0321 117.511 94.9525 117.706 94.8154C118.136 94.5083 118.623 94.2907 119.138 94.1757C119.654 94.0607 120.187 94.0506 120.707 94.1461C124.014 94.7709 124.277 101.677 120.312 105.004C118.149 106.823 116.955 106.384 116.287 105.554C116.213 105.468 116.115 105.405 116.005 105.373C115.896 105.342 115.779 105.343 115.67 105.376C115.561 105.41 115.465 105.474 115.392 105.562C115.319 105.649 115.273 105.756 115.261 105.869L114.629 109.805C113.257 114.832 112.423 119.99 112.142 125.193C112.089 130.644 112.567 136.087 113.57 141.446C113.695 142.114 114.724 141.918 114.754 141.288C115.016 136.056 113.97 130.9 113.926 125.665C114.021 121.444 114.508 117.24 115.379 113.108C119.798 110.67 132.963 102.558 134.953 91.7004C137.341 78.6761 127.011 80.8584 119.68 76.1218ZM111.348 48.2986C107.16 45.1569 102.146 43.6706 97.0681 45.6607C91.9897 47.6507 88.9874 52.3535 86.5705 56.9957C86.522 57.0792 86.4442 57.1419 86.3522 57.1718C86.2601 57.2017 86.1603 57.1966 86.0718 57.1575C85.9833 57.1185 85.9123 57.0482 85.8726 56.9602C85.8329 56.8722 85.8271 56.7726 85.8565 56.6807C87.7325 51.597 91.581 46.0185 96.8681 44.0427C101.723 42.2342 108.667 43.0583 112.101 47.2698C112.576 47.7824 111.984 48.7721 111.348 48.2986Z" fill="#011E4B"/>
<path d="M96.7519 81.4355C96.3592 81.6011 96.4734 82.1475 96.7519 82.3398C97.9318 83.171 99.4026 83.3935 100.54 84.2675C101.488 85.1675 102.194 86.2907 102.592 87.5338C102.654 87.6415 102.743 87.731 102.85 87.7933C102.958 87.8556 103.08 87.8885 103.204 87.8885C103.328 87.8885 103.45 87.8556 103.557 87.7933C103.665 87.731 103.754 87.6415 103.815 87.5338C106.129 83.9435 99.8578 80.1201 96.7519 81.4355Z" fill="#011E4B"/>
<path d="M84.7134 75.6091C84.6317 75.6959 84.5737 75.8021 84.545 75.9177C84.5164 76.0332 84.518 76.1542 84.5497 76.269C84.5814 76.3837 84.6422 76.4884 84.7262 76.573C84.8102 76.6575 84.9146 76.7192 85.0294 76.7519C87.2918 77.3679 89.2802 78.7261 90.6736 80.6074C90.8037 80.7279 90.9689 80.8038 91.1453 80.824C91.3217 80.8443 91.5 80.8079 91.6542 80.7201C91.8084 80.6323 91.9304 80.4977 92.0025 80.3359C92.0747 80.1741 92.0931 79.9936 92.0551 79.8206C91.3233 77.5725 87.1535 73.4375 84.7134 75.6091Z" fill="#011E4B"/>
<path d="M87.1613 272.223C106.396 296.132 154.079 287.314 179.587 264.076C195.704 249.394 193.36 236.05 186.493 215.907C184.807 210.292 182.56 204.86 179.785 199.693C179.553 199.296 179.003 199.651 179.192 200.049C183.587 209.393 186.91 219.202 189.099 229.289C191.982 242.331 190.275 251.361 180.851 261.009C165.403 276.814 141.623 285.681 119.641 284.936C107.999 284.54 95.7489 280.641 87.7932 271.634C87.4058 271.194 86.8453 271.83 87.1613 272.223Z" fill="#011E4B"/>
<path d="M16.8355 203.47C11.6526 230.12 13.738 257.669 22.8742 283.241C23.0616 283.757 23.8988 283.556 23.7024 283.006C15.5984 257.39 13.5187 230.257 17.6245 203.711C17.7423 203.157 16.9444 202.919 16.8355 203.47Z" fill="#011E4B"/>
<path d="M143.083 220.59C144.893 229.323 146.04 238.068 147.108 246.918C147.183 247.548 148.179 247.587 148.132 246.918C147.873 237.915 146.494 228.979 144.027 220.314C143.866 219.686 142.952 219.962 143.083 220.59Z" fill="#005BAA"/>
<path d="M149.474 283.633C149.514 286.699 149.725 289.761 150.106 292.804C150.113 292.929 150.169 293.047 150.26 293.133C150.352 293.219 150.473 293.267 150.599 293.267C150.725 293.267 150.847 293.219 150.938 293.133C151.03 293.047 151.085 292.929 151.093 292.804C151.472 289.691 151.229 286.534 150.379 283.516C150.346 283.413 150.277 283.325 150.186 283.267C150.094 283.209 149.985 283.185 149.877 283.199C149.77 283.213 149.671 283.264 149.597 283.343C149.523 283.423 149.48 283.525 149.474 283.633Z" fill="#005BAA"/>
<path d="M94.2253 248.296C98.3564 247.926 102.517 248.531 106.37 250.062C110.223 251.594 113.661 254.008 116.404 257.11C117.475 258.328 117.866 260.17 119.562 260.377C121.519 260.478 123.481 260.333 125.402 259.944C136.958 258.28 154.167 251.756 154.448 237.789C154.573 231.5 150.878 221.235 148.607 215.396C148.363 214.768 147.39 214.999 147.581 215.67C149.366 221.952 151.879 227.952 152.757 234.481C154.621 248.456 138.834 256.751 124.777 258.645C123.594 258.805 120.436 259.629 119.331 259.001C119.172 258.922 118.387 257.425 118.148 257.112C117.299 256.05 116.347 255.075 115.306 254.2C112.47 251.653 109.128 249.729 105.497 248.556C101.866 247.383 98.0276 246.986 94.2324 247.392C93.6326 247.468 93.6308 248.367 94.2253 248.296Z" fill="#011E4B"/>
<path d="M102.67 256.796C106.749 261.424 100.616 261.41 97.2241 262.818C97.082 262.854 96.9604 262.945 96.8859 263.071C96.8114 263.197 96.7902 263.348 96.8269 263.489C96.8636 263.631 96.9552 263.752 97.0816 263.827C97.2079 263.901 97.3587 263.922 97.5007 263.885C98.971 263.599 100.421 263.218 101.842 262.745C105.455 261.644 106.222 259.313 103.27 256.171C102.859 255.74 102.283 256.356 102.67 256.796Z" fill="#011E4B"/>
<path d="M218.065 135.626C215.244 128.788 209.824 123.341 202.988 120.475C197.01 118.038 190.317 118.009 184.317 120.395C178.318 122.78 173.481 127.394 170.825 133.264C169.107 137.152 168.45 141.424 168.92 145.646C169.39 149.869 170.971 153.893 173.502 157.31L166.28 165.692C165.727 165.023 165.186 164.345 164.622 163.684C152.958 150.044 132.467 142.436 118.692 143.141C117.978 143.179 116.759 143.102 116.205 143.654C115.848 144.047 115.941 144.599 115.889 145.078C115.604 148.794 114.281 152.356 112.07 155.36C109.86 158.365 106.849 160.692 103.38 162.079C100.295 163.189 96.9592 163.417 93.751 162.735C90.5428 162.053 87.59 160.49 85.2266 158.221C80.5303 153.415 79.072 146.473 78.2402 140.08C78.1955 139.724 77.8064 139.528 77.4904 139.489C55.8438 136.854 27.9299 149.829 15.9651 173.011C13.5502 177.723 11.7471 182.721 10.5994 187.887C10.2424 189.462 8.93395 192.928 9.61225 194.38C9.92462 195.051 10.8778 195.439 11.4669 195.758C15.5426 197.852 19.7629 199.654 24.0957 201.15C28.7616 203.061 33.6356 204.421 38.6185 205.203C39.6056 205.32 39.6056 203.745 38.6185 203.629C30.4914 202.67 22.0644 199.064 14.6995 195.601C13.4774 195.205 12.3309 194.606 11.308 193.83C10.6368 193.044 11.7899 189.542 12.097 188.241C13.2304 183.219 14.9798 178.355 17.3056 173.759C29.2169 150.731 56.5578 138.99 76.78 140.938C78.2402 150.619 81.6317 161.1 92.1721 163.921C96.8453 165.088 101.783 164.542 106.087 162.382C110.39 160.222 113.771 156.592 115.614 152.153C116.563 150.204 117.138 148.096 117.31 145.936C117.342 144.756 117.069 144.943 117.824 144.638C118.721 144.466 119.641 144.439 120.546 144.558C124.142 144.541 127.724 144.991 131.203 145.897C158.858 153.14 170.259 169.129 179.901 195.011C174.198 203.483 148.939 212.07 138.741 213.939C138.023 213.182 137.388 212.351 136.845 211.461C134.671 206.742 134.921 208.401 133.136 202.723C131.871 198.903 130.947 194.979 130.373 190.997C130.287 190.329 129.123 190.484 129.189 191.153C129.534 194.624 130.167 198.06 131.083 201.426C129.398 201.426 57.0629 273.829 46.2351 283.517C44.0306 285.491 42.6883 287.53 44.3412 290.404C46.5564 294.258 57.3539 308.948 60.126 312.601C62.0145 315.093 63.9173 318.852 67.1517 319.764C68.7623 320.095 70.4377 319.885 71.9156 319.165C73.3936 318.446 74.5908 317.259 75.3199 315.789C77.1834 312.289 72.5924 308.236 70.6646 305.792C68.0906 302.531 57.3003 290.143 55.4296 286.705C55.3646 286.59 55.3435 286.454 55.3702 286.324C55.3968 286.194 55.4695 286.078 55.5748 285.997C55.6802 285.916 55.8113 285.875 55.9442 285.882C56.0771 285.89 56.203 285.944 56.2989 286.036C57.8081 287.364 59.2067 288.812 60.4812 290.365C64.8634 286.784 69.2437 283.4 73.3082 279.425C75.834 282.376 78.3348 285.315 80.9248 288.201C81.5557 289.119 82.4379 289.837 83.4664 290.27C84.4948 290.702 85.6262 290.831 86.726 290.641C87.5493 290.447 88.3163 290.065 88.9666 289.525C89.617 288.986 90.1332 288.303 90.4745 287.531C91.5919 284.94 90.3228 282.923 88.7788 280.881C87.9131 279.737 81.6156 272.405 79.7413 269.744C79.3504 269.19 80.1769 268.64 80.6481 269.032C81.7514 269.96 82.8054 270.945 83.8058 271.983C84.2788 271.511 97.1451 258.368 100.183 255.141C95.5261 251.716 85.3516 253.183 90.6334 247.387C95.2566 242.316 104.524 245.655 107.8 247.111C113.838 240.703 133.609 219.131 138.07 215.904L138.109 215.865C138.276 215.786 138.404 215.645 138.466 215.472C138.65 215.435 138.816 215.337 138.939 215.196C141.729 215.136 144.489 214.618 147.109 213.661C156.066 211.068 176.453 203.672 181.008 195.559C181.102 195.537 181.19 195.494 181.266 195.434C181.341 195.373 181.402 195.297 181.443 195.21C181.485 195.123 181.506 195.027 181.506 194.931C181.506 194.835 181.484 194.74 181.442 194.653C179.691 190.203 177.97 185.641 175.917 181.303C179.863 177.211 183.889 173.21 187.994 169.3C185.489 168.253 183.221 166.713 181.324 164.774C181.001 164.428 181.445 163.864 181.838 164.106C187.047 167.31 193.2 170.026 199.477 169.268C214.743 167.412 223.205 149.277 218.065 135.626ZM205.08 151.879C203.912 153.254 202.483 154.386 200.876 155.21C199.268 156.034 197.514 156.534 195.713 156.682C193.911 156.83 192.098 156.623 190.378 156.072C188.657 155.521 187.061 154.638 185.683 153.472C184.304 152.307 183.169 150.882 182.343 149.279C181.517 147.676 181.015 145.927 180.867 144.131C180.567 140.503 181.725 136.906 184.085 134.129C189.519 127.942 199.954 128.656 205.002 134.759C206.962 137.18 208.037 140.194 208.051 143.306C208.066 146.417 207.018 149.441 205.08 151.879Z" fill="#005BAA"/>
</svg>
